<?xml version="1.0"?><svg width="640" height="480.00000000000006" xmlns="http://www.w3.org/2000/svg">
 <title>Grey Thunder Cloud3</title>
 <metadata id="metadata5110">image/svg+xml</metadata>
 <g>
  <title>Layer 1</title>
  <g id="svg_1">
   <path fill="#7f7f7f" id="path5063" d="m351.608856,73.379417c-30.73999,0 -58.04007,14.709045 -75.250031,37.468018c-14.599854,-9.266975 -31.899902,-14.625008 -50.469955,-14.625008c-46.879898,0 -85.77002,34.21698 -93.060059,79.031982c-43.079842,8.707031 -75.540047,46.76503 -75.540047,92.406021c0,52.071991 42.23999,94.280975 94.320076,94.280975c21.22998,0 40.830063,-7.028015 56.590073,-18.875c9.169922,2.973022 18.939957,4.593994 29.089844,4.593994c9.840103,0 19.340088,-1.519897 28.25,-4.312988c16.720215,15.10498 38.890137,24.312988 63.190186,24.312988c24.679932,0 47.159912,-9.478943 63.970001,-25c15.139893,10.359009 33.459961,16.406006 53.189911,16.406006c15.659912,0 30.409882,-3.80896 43.399902,-10.561951c6.279999,1.314972 12.779999,2 19.440186,2c52.069824,0 94.280029,-42.209045 94.280029,-94.282013c0,-52.072037 -42.210205,-94.281021 -94.280029,-94.281021c-0.51001,0 -1.02002,0.02301 -1.53006,0.031006c-16.790039,-20.34198 -41.929932,-33.528015 -70.189941,-34.281006c-15.040009,-32.093987 -47.620056,-54.312004 -85.400085,-54.312004l0,0z"/>
   <path fill="#000000" fill-rule="nonzero" stroke-width="8" id="path5065" d="m352.037598,66.122681c-30.771484,0 -58.168671,14.271118 -76.187469,36.4375c-14.564972,-8.532471 -31.450211,-13.5625 -49.531265,-13.5625c-47.894028,0 -87.757065,34.340027 -96.437256,79.75c-43.600578,10.06427 -76.124992,49.078857 -76.124992,95.6875c0,54.234131 44.047119,98.28125 98.281013,98.28125c21.37915,0 41.176498,-6.892609 57.3125,-18.5c9.003906,2.718262 18.523666,4.218719 28.40625,4.218719c9.480942,0 18.631805,-1.396454 27.3125,-3.906281c17.215302,14.849518 39.622559,23.906281 64.124969,23.906281c24.598389,0 47.042969,-9.141693 64.28125,-24.093781c15.270508,9.771027 33.384277,15.500061 52.84375,15.500061c15.81424,0 30.753174,-3.789917 44,-10.4375c6.124023,1.191711 12.417725,1.875 18.875,1.875c54.234131,0 98.28125,-44.04718 98.28125,-98.28125c0,-54.170898 -43.946533,-98.178772 -98.093475,-98.28125c-16.99588,-19.749023 -41.732208,-32.652405 -69.469025,-34.0625c-16.120605,-32.275513 -49.385498,-54.53125 -87.875,-54.53125zm0,8c36.216309,0 67.413116,21.305969 81.812531,52.03125a4.0004,4.0004 0 0 03.531494,2.3125c27.061249,0.729492 51.114227,13.336426 67.187225,32.8125a4.0004,4.0004 0 0 03.156281,1.46875c0.587891,-0.009033 1.078369,-0.031189 1.468719,-0.031189c49.911133,0 90.28125,40.370178 90.28125,90.28125c0,49.911011 -40.370117,90.281219 -90.28125,90.281219c-6.400879,0 -12.647675,-0.644989 -18.65625,-1.906189a4.0004,4.0004 0 0 0-2.655975,0.343658c-12.437775,6.460327 -26.562775,10.125 -41.562775,10.125c-18.917725,0 -36.434082,-5.819946 -50.937225,-15.75a4.0004,4.0004 0 0 0-4.969025,0.375c-16.101074,14.874146 -37.559814,23.968719 -61.21875,23.968719c-23.294678,0 -44.485321,-8.814423 -60.499969,-23.281219a4.0004,4.0004 0 0 0-3.875,-0.843719c-8.540558,2.678986 -17.629883,4.124939 -27.0625,4.124939c-9.739258,0 -19.093033,-1.556976 -27.875,-4.406219a4.0004,4.0004 0 0 0-3.656265,0.625c-15.09642,11.345703 -33.83519,18.0625 -54.187485,18.0625c-49.910896,0 -90.281013,-40.370239 -90.281013,-90.28125c0,-43.755188 31.062256,-80.174011 72.312263,-88.5a4.0004,4.0004 0 0 03.15625,-3.25c6.984863,-42.909119 44.16478,-75.6875 89.093735,-75.6875c17.796143,0 34.338882,5.127197 48.312515,14a4.0004,4.0004 0 0 05.34375,-0.96875c16.485565,-21.80896 42.597137,-35.90625 72.062469,-35.90625z"/>
   <path fill="#bfbfbf" id="path5067" d="m350.721924,82.903687c-35.249969,0 -65.630127,21.442017 -79.560059,52.312988c0.109863,0.069031 0.209991,0.14801 0.310089,0.218018c16.009979,-21.789978 41.409912,-35.875 70,-35.875c28.689911,0 54.159912,14.184998 70.159912,36.093994c-0.220001,0.039001 -0.439972,0.085022 -0.659943,0.125c3.469971,4.859009 6.469971,10.075989 8.970001,15.593994c5.419922,0.151001 10.72995,0.80304 15.879852,1.906006c0.150146,0.031982 0.310059,0.061035 0.469971,0.093994c12.640167,2.788025 24.290039,8.325012 34.340088,16c-0.130127,0.03302 -0.27002,0.059998 -0.409912,0.093994c5.199951,3.728027 9.939972,7.973022 14.159943,12.593018c0.509979,-0.007019 1.019989,-0.031006 1.529999,-0.031006c52.169922,0 94.440002,38.200989 94.440002,85.312988c0,12.125 -2.80011,23.649048 -7.850159,34.093018c11.200195,-14.018982 17.820129,-31.20697 17.820129,-49.812012c0,-47.112 -42.28009,-85.312988 -94.440002,-85.312988c-0.429901,0 -0.860077,0.026978 -1.280029,0.031982c-15.790039,-18.91095 -38.850067,-31.105957 -64.71994,-31.968994c-14.100128,-30.407959 -44.230011,-51.468994 -79.159943,-51.468994l0,0zm-123.930145,21.125c-2.209961,-0.036011 -4.419922,0.039001 -6.659927,0.187988c-34.259995,2.277039 -62.25,25.821045 -73.060043,57.593018c13.679916,-23.057983 37.390121,-39.049988 65.310043,-40.906006c16.439957,-1.09198 32.100098,2.862 45.590073,10.593994c3.279785,-5.23999 7.119873,-10.085999 11.379913,-14.468994c-12.48999,-8.031006 -27.100113,-12.747986 -42.560059,-13zm128.620087,29.843994c-24.870117,0.06604 -47.76001,10.098999 -64.160156,26.531006c1.870148,1.34198 3.720215,2.71698 5.470245,4.187988c17.629883,-12.540955 39.97995,-18.893005 63.499969,-16.25c49.609894,5.572998 85.439941,49.041016 80.029785,97.125c-0.669922,5.979004 -1.929901,11.774048 -3.75,17.281006c5.100098,-9.403015 8.460205,-19.901001 9.720215,-31.125c5.409912,-48.083984 -30.420166,-91.583008 -80.030029,-97.156006c-3.620117,-0.406982 -7.22998,-0.602966 -10.780029,-0.593994zm-151.939926,25.218994c-6.930161,0.005005 -13.970215,0.799011 -21.030029,2.437012c-20.459946,4.75 -37.73999,15.895996 -50.060043,30.718994c0.859863,-4.601013 2.119858,-9.052002 3.689941,-13.375c-26.66993,6.955994 -48.439949,25.434998 -59.320076,49.593994c12.860107,-17.276978 32,-29.86499 54.220222,-34.5c-12.470222,15.783997 -19.470222,35.483032 -19.000008,56c5.419922,-34.771973 32.12989,-64.740967 69.469963,-73.406982c22.699951,-5.266968 45.309814,-1.734985 64.099869,8.312988c4.410141,-2.545959 9.120102,-4.739014 14.030029,-6.562988c-15.570084,-12.21698 -35.300064,-19.232971 -56.099869,-19.218018z"/>
  </g>
 </g>
</svg>